<svg width="24" height="24" viewBox="0 0 24 24" fill="none" xmlns="http://www.w3.org/2000/svg">
<mask id="mask0_0_5784" style="mask-type:luminance" maskUnits="userSpaceOnUse" x="0" y="0" width="24" height="24">
<path d="M24 24L0 24L-2.09815e-06 0L24 -2.09815e-06L24 24Z" fill="white"/>
</mask>
<g mask="url(#mask0_0_5784)">
<mask id="mask1_0_5784" style="mask-type:luminance" maskUnits="userSpaceOnUse" x="0" y="0" width="24" height="24">
<path d="M24 24L0 24L-2.09815e-06 0L24 -2.09815e-06L24 24Z" fill="white"/>
</mask>
<g mask="url(#mask1_0_5784)">
<path d="M17.6343 22.5842C19.2964 21.5296 20.4456 15.8739 20.1928 14.1898C20.1928 14.1898 19.9294 13.2856 19.2865 13.2856C18.6437 13.2856 18.3762 13.9629 18.3762 13.9629C18.3762 13.9629 17.2788 18.0191 16.2865 18.4765C15.2942 18.9339 14.332 18.4765 14.332 18.4765C15.0605 21.2396 15.9721 23.6387 17.6343 22.5842Z" fill="#34322D"/>
<path d="M14.8768 9.4363L13.1815 9.07052L13.189 9.03389L13.1981 8.99765L14.8768 9.4363ZM15.1487 8.3575L16.8492 8.69728L16.8398 8.74706L16.8275 8.79615L15.1487 8.3575ZM14.8569 7.61893L15.2957 5.98374L15.4864 6.03657L15.6611 6.13005L14.8569 7.61893ZM13.5667 7.96464L12.221 6.87217L12.2942 6.78445L12.3788 6.70741L13.5667 7.96464ZM12.4287 9.64315L13.9833 10.4163L13.8348 10.7133L13.582 10.931L12.4287 9.64315ZM11.7859 10.5003L13.4743 10.1663L14.2108 13.4613L11.0853 12.0404L11.7859 10.5003ZM8.57164 14.786L8.53088 13.0865C9.10679 13.0841 9.65164 13.3639 9.98395 13.8327C10.3162 14.3015 10.3923 14.8977 10.1869 15.4227L8.57164 14.786ZM12.8277 18.1653L12.3032 19.7745L12.2736 19.7646L12.2443 19.7538L12.8277 18.1653ZM15.857 18.8574L16.1754 17.1934L16.2244 17.2033L16.2727 17.216L15.857 18.8574ZM18.2115 15.6577L18.879 14.103L19.9533 14.5653L19.9403 15.7095L18.2115 15.6577ZM13.1981 8.99765L13.47 7.91884L16.8275 8.79615L16.5555 9.87495L13.1981 8.99765ZM15.1487 8.3575C13.4483 8.01771 13.4482 8.01833 13.4481 8.01896C13.448 8.01916 13.4479 8.01978 13.4478 8.02019C13.4477 8.02102 13.4475 8.02183 13.4474 8.02265C13.4471 8.02427 13.4468 8.02588 13.4465 8.02746C13.4459 8.03064 13.4454 8.03374 13.4449 8.03676C13.4438 8.04281 13.4428 8.04859 13.4419 8.05411C13.4402 8.06513 13.4387 8.0753 13.4374 8.08476C13.435 8.10334 13.4333 8.12075 13.4322 8.13778C13.4305 8.16674 13.4292 8.21712 13.4396 8.28569C13.4568 8.39883 13.5613 8.84472 14.0527 9.10781L15.6611 6.13005C16.5437 6.60261 16.7942 7.41779 16.8595 7.84784C16.8939 8.07486 16.8922 8.27061 16.8841 8.40532C16.8798 8.47523 16.8734 8.53561 16.8671 8.58395C16.8639 8.60828 16.8606 8.63002 16.8576 8.64889C16.8561 8.65834 16.8546 8.66712 16.8532 8.67518C16.8525 8.67921 16.8518 8.68307 16.8511 8.68676C16.8508 8.6886 16.8505 8.6904 16.8501 8.69215C16.85 8.69303 16.8498 8.69389 16.8497 8.69475C16.8496 8.69518 16.8495 8.69581 16.8494 8.69602C16.8493 8.69665 16.8492 8.69728 15.1487 8.3575ZM14.8569 7.61893C14.4181 9.25412 14.4189 9.25433 14.4197 9.25455C14.4199 9.25462 14.4207 9.25483 14.4212 9.25497C14.4223 9.25526 14.4233 9.25554 14.4243 9.25581C14.4263 9.25637 14.4283 9.25691 14.4303 9.25744C14.4342 9.2585 14.4381 9.25951 14.4418 9.26048C14.4492 9.26241 14.4562 9.26417 14.4627 9.26578C14.4758 9.26898 14.4874 9.27158 14.4975 9.27369C14.5176 9.27789 14.533 9.28039 14.5449 9.28193C14.5667 9.28477 14.5841 9.28534 14.6014 9.28402C14.6466 9.28055 14.7132 9.25953 14.7546 9.22188L12.3788 6.70741C13.0123 6.13077 13.724 5.9369 14.2663 5.89532C14.5321 5.87494 14.761 5.89015 14.9323 5.91238C15.0188 5.92361 15.0934 5.937 15.154 5.94967C15.1843 5.95602 15.2115 5.96224 15.2351 5.96801C15.2469 5.9709 15.2579 5.97368 15.268 5.97631C15.273 5.97763 15.2779 5.97891 15.2825 5.98015C15.2848 5.98077 15.287 5.98138 15.2892 5.98198C15.2903 5.98228 15.2914 5.98258 15.2925 5.98287C15.293 5.98302 15.2938 5.98324 15.2941 5.98331C15.2949 5.98353 15.2957 5.98374 14.8569 7.61893ZM14.9124 9.05712C14.5224 9.52476 14.1275 10.128 13.9833 10.4163L10.8741 8.86993C11.1585 8.30117 11.7097 7.48528 12.221 6.87217L14.9124 9.05712ZM13.582 10.931C13.4131 11.0764 13.3343 11.161 13.3139 11.1866C13.303 11.2003 13.3519 11.144 13.4032 11.0268C13.4476 10.9254 13.5717 10.6024 13.4743 10.1663L10.0975 10.8342C9.9779 10.2989 10.1227 9.86109 10.2227 9.6326C10.3296 9.3884 10.4691 9.19299 10.5758 9.059C10.7907 8.78936 11.0555 8.54462 11.2754 8.35532L13.582 10.931ZM9.41083 13.7934C9.37921 13.6581 9.30189 13.5022 9.17234 13.3665C9.05254 13.2409 8.92959 13.1754 8.85214 13.1432C8.77698 13.112 8.71757 13.1006 8.68136 13.0953C8.66056 13.0923 8.63901 13.0901 8.61576 13.0887C8.60392 13.088 8.59112 13.0874 8.57718 13.087C8.57019 13.0868 8.56286 13.0867 8.55517 13.0866C8.55132 13.0866 8.54737 13.0865 8.54333 13.0865C8.54131 13.0865 8.53926 13.0865 8.53718 13.0865C8.53614 13.0865 8.5351 13.0865 8.53405 13.0865C8.53352 13.0865 8.53273 13.0865 8.53247 13.0865C8.53167 13.0865 8.53088 13.0865 8.57164 14.786C8.6124 16.4855 8.61159 16.4855 8.61079 16.4855C8.61052 16.4855 8.60971 16.4855 8.60916 16.4855C8.60807 16.4855 8.60696 16.4855 8.60584 16.4855C8.60359 16.4855 8.60129 16.4855 8.59894 16.4855C8.59422 16.4854 8.58928 16.4854 8.58411 16.4854C8.57378 16.4852 8.56253 16.485 8.55042 16.4847C8.52623 16.4841 8.49836 16.4829 8.46723 16.481C8.4054 16.4772 8.32841 16.4703 8.24013 16.4574C8.06897 16.4325 7.82648 16.3815 7.5588 16.2703C6.98281 16.031 6.27438 15.4899 6.04145 14.4934L9.41083 13.7934ZM8.57164 14.786C10.1869 15.4227 10.1868 15.423 10.1869 15.4227C10.187 15.4226 10.1873 15.4217 10.1874 15.4215C10.1875 15.4211 10.1877 15.4207 10.1878 15.4203C10.1881 15.4196 10.1884 15.4188 10.1887 15.4181C10.1892 15.4168 10.1897 15.4155 10.1901 15.4144C10.191 15.4121 10.1916 15.4104 10.1921 15.4092C10.193 15.4067 10.1932 15.4062 10.1927 15.4076C10.1917 15.4103 10.1882 15.4202 10.183 15.4363C10.1724 15.469 10.1559 15.5236 10.1393 15.5931C10.1036 15.7426 10.0803 15.9071 10.0852 16.0475L6.6292 16.0961C6.61077 15.5581 6.69475 15.0797 6.77207 14.7559C6.812 14.5887 6.85347 14.4491 6.8867 14.3467C6.90341 14.2953 6.91829 14.2524 6.93021 14.2193C6.93617 14.2027 6.94142 14.1885 6.94582 14.1768C6.94802 14.171 6.95 14.1657 6.95176 14.1611C6.95264 14.1589 6.95347 14.1567 6.95423 14.1547C6.95461 14.1538 6.95498 14.1528 6.95533 14.1519C6.95551 14.1515 6.95568 14.151 6.95585 14.1506C6.95581 14.1508 6.95594 14.1504 6.95585 14.1506C6.95597 14.1503 6.95635 14.1493 8.57164 14.786ZM14.5385 15.3283C14.2849 14.8455 14.2611 14.3729 14.256 14.1382C14.2532 14.0061 14.2569 13.8775 14.2597 13.7851C14.2628 13.6807 14.2654 13.6084 14.2658 13.5325C14.2672 13.2632 14.236 13.1796 14.1857 13.1012L17.1004 11.328C17.6707 12.2168 17.7266 13.0698 17.7237 13.6164C17.723 13.7444 17.7186 13.8686 17.7161 13.9516C17.7132 14.0466 17.7125 14.0966 17.7132 14.1325C17.7154 14.234 17.7311 14.0561 17.6045 13.8151L14.5385 15.3283ZM14.1857 13.1012C14.0127 12.8316 13.9729 12.7902 13.7731 12.4872C13.6251 12.2627 13.4428 11.9677 13.3015 11.608C12.9885 10.8116 12.9907 10.0033 13.1815 9.07052L16.5722 9.80207C16.5131 10.0909 16.5054 10.2535 16.5084 10.3377C16.5109 10.4061 16.52 10.4267 16.524 10.4369C16.5348 10.4643 16.5625 10.5236 16.664 10.6775C16.7163 10.7568 16.7712 10.8364 16.8493 10.9507C16.923 11.0586 17.0091 11.1857 17.1004 11.328L14.1857 13.1012ZM13.3521 16.5562C13.5382 16.618 14.1835 16.7692 14.9076 16.9264C15.2426 16.9992 15.5601 17.066 15.7943 17.1148C15.9112 17.1391 16.007 17.1589 16.0733 17.1725C16.1065 17.1793 16.1323 17.1846 16.1496 17.1881C16.1583 17.1899 16.1649 17.1912 16.1692 17.1921C16.1714 17.1926 16.173 17.1929 16.174 17.1931C16.1745 17.1932 16.1752 17.1934 16.1754 17.1934C16.1753 17.1934 16.1755 17.1934 16.1754 17.1934C16.1754 17.1934 16.1754 17.1934 15.857 18.8574C15.5387 20.5215 15.5386 20.5215 15.5386 20.5214C15.5385 20.5214 15.5388 20.5215 15.5386 20.5214C15.5382 20.5214 15.5371 20.5212 15.5365 20.521C15.5352 20.5208 15.5333 20.5204 15.5308 20.5199C15.5259 20.5189 15.5187 20.5174 15.5094 20.5155C15.4909 20.5117 15.4638 20.5062 15.4292 20.4991C15.3602 20.4849 15.2612 20.4645 15.1407 20.4394C14.9001 20.3893 14.572 20.3203 14.2242 20.2447C13.5827 20.1054 12.7133 19.9106 12.3032 19.7745L13.3521 16.5562ZM17.6045 13.8151C17.5304 13.6741 17.448 13.5843 17.4013 13.5394C17.3768 13.5158 17.3571 13.4997 17.345 13.4905C17.3329 13.4811 17.3258 13.4766 17.3255 13.4763C17.325 13.4761 17.3292 13.4787 17.3389 13.4841C17.3484 13.4894 17.3619 13.4964 17.3798 13.5051C17.4162 13.5228 17.4635 13.5435 17.523 13.5671C17.6452 13.6154 17.7836 13.6618 17.941 13.7119C18.002 13.7313 18.1109 13.7655 18.1756 13.7862C18.25 13.81 18.3449 13.8411 18.4367 13.8753L17.2659 17.0506C17.2179 17.0327 17.1453 17.011 16.9335 16.9436C16.7588 16.888 16.5253 16.8117 16.2853 16.7167C16.052 16.6244 15.7573 16.4932 15.4738 16.3111C15.2112 16.1426 14.804 15.8336 14.5385 15.3283L17.6045 13.8151ZM18.4367 13.8753C18.5006 13.8991 18.5619 13.9228 18.6195 13.9467C18.6749 13.9696 18.7425 13.9991 18.8136 14.035C18.8788 14.0678 18.9922 14.1285 19.1165 14.2216C19.1829 14.2713 19.2602 14.336 19.3394 14.4181C19.4216 14.5035 19.4944 14.5957 19.5572 14.6933C19.6174 14.7869 19.6552 14.8655 19.6688 14.8942C19.6719 14.9007 19.6744 14.9062 19.6746 14.9065C19.6755 14.9085 19.6736 14.9045 19.6716 14.9002C19.6671 14.8908 19.6555 14.8663 19.6392 14.8354C19.6031 14.7668 19.5507 14.6789 19.4769 14.5842C19.4046 14.4914 19.3295 14.4147 19.2584 14.3521C19.1273 14.2367 19.0107 14.1706 18.965 14.1457C18.9373 14.1305 18.9155 14.1199 18.9027 14.1138C18.8895 14.1076 18.8811 14.1039 18.879 14.103L17.5439 17.2124C17.4885 17.1886 17.4138 17.1547 17.333 17.1107C17.258 17.0698 17.1228 16.9908 16.9793 16.8646C16.9021 16.7966 16.8223 16.7148 16.7464 16.6174C16.669 16.518 16.6139 16.4257 16.5755 16.3529C16.5581 16.3199 16.5454 16.2933 16.54 16.2817C16.5385 16.2787 16.5374 16.2762 16.5367 16.2747C16.5363 16.2739 16.536 16.2733 16.5358 16.2729C16.5355 16.2722 16.5374 16.2762 16.54 16.2817C16.5516 16.3062 16.5871 16.3804 16.6445 16.4695C16.7044 16.5627 16.7736 16.6502 16.851 16.7305C16.9253 16.8076 16.9964 16.8668 17.0547 16.9105C17.1629 16.9916 17.2529 17.0379 17.2825 17.0529C17.3182 17.0709 17.3382 17.0788 17.3295 17.0752C17.3231 17.0725 17.3038 17.0647 17.2659 17.0506L18.4367 13.8753ZM19.9403 15.7095C19.9327 16.3822 19.6621 17.0914 19.4701 17.5304C19.2585 18.0145 18.9789 18.5307 18.7215 18.8738L15.9243 16.8226C15.9736 16.7569 16.1347 16.4904 16.289 16.1377C16.3606 15.9738 16.416 15.8245 16.4512 15.7048C16.4916 15.5674 16.4833 15.5437 16.4826 15.6059L19.9403 15.7095ZM18.7215 18.8738C18.362 19.353 17.9546 19.859 17.4645 20.1826C17.1757 20.3733 16.8268 20.525 16.4152 20.5747C16.0178 20.6227 15.6784 20.561 15.4413 20.4988L16.2727 17.216C16.2602 17.2127 16.1239 17.1774 15.928 17.201C15.718 17.2264 15.5691 17.303 15.4983 17.3498C15.4467 17.3838 15.4595 17.3869 15.5489 17.289C15.6344 17.1954 15.7541 17.0496 15.9243 16.8226L18.7215 18.8738ZM10.0852 16.0475C10.0722 15.6707 9.82119 15.5055 9.88272 15.5485C9.97187 15.6108 10.1946 15.7197 10.6185 15.8481C11.0236 15.9707 11.4712 16.0714 11.965 16.1841C12.4042 16.2842 12.9639 16.4109 13.411 16.5769L12.2443 19.7538C12.0624 19.6862 11.7549 19.6105 11.2455 19.4943C10.7907 19.3906 10.2084 19.2611 9.65908 19.0947C9.12868 18.9341 8.47265 18.6952 7.91561 18.3059C7.33094 17.8973 6.66622 17.1769 6.6292 16.0961L10.0852 16.0475ZM6.48379 9.77313C6.55029 9.64005 6.60958 9.41021 6.55229 9.13847C6.50019 8.8913 6.38085 8.74897 6.34483 8.71036C6.31049 8.67357 6.39391 8.76207 6.74593 8.91213C7.05409 9.04349 7.41771 9.16033 7.77861 9.26637C7.97379 9.32371 8.10216 9.35913 8.27666 9.40975C8.40135 9.44592 8.60247 9.50439 8.76984 9.57157L7.51601 12.7147C7.54273 12.7255 7.51785 12.7148 7.35723 12.6682C7.24642 12.6361 7.03018 12.5751 6.84748 12.5214C6.45264 12.4054 5.92747 12.2418 5.42216 12.0264C4.96072 11.8297 4.30598 11.5051 3.81718 10.9813C3.55392 10.6992 3.27827 10.2948 3.16682 9.76613C3.05018 9.21287 3.1471 8.68202 3.37422 8.22747L6.48379 9.77313ZM8.76984 9.57157C9.13471 9.71803 9.53986 9.95383 9.86312 10.3434C10.2057 10.7564 10.362 11.2289 10.3853 11.6773C10.4246 12.4343 10.0757 13.0787 9.92323 13.3562C9.82686 13.5314 9.71874 13.7093 9.642 13.8374C9.55581 13.9814 9.49742 14.0818 9.45393 14.1667C9.31667 14.4348 9.50879 14.2125 9.41083 13.7934L6.04145 14.4934C5.93264 14.028 5.99282 13.6154 6.06915 13.3258C6.14569 13.0354 6.26196 12.7816 6.35913 12.5919C6.45791 12.399 6.56776 12.2142 6.65313 12.0716C6.74795 11.9132 6.81471 11.8033 6.87389 11.6957C6.93241 11.5892 6.95266 11.5393 6.95689 11.5274C6.96295 11.5102 6.92275 11.6097 6.93186 11.7851C6.94276 11.9948 7.02193 12.2458 7.20026 12.4607C7.35918 12.6523 7.51271 12.7134 7.51601 12.7147L8.76984 9.57157ZM11.0853 12.0404C9.9844 11.5399 8.34608 10.7257 7.37585 10.3854L8.4817 7.18662C9.65122 7.5968 11.6214 8.56693 12.4865 8.96024L11.0853 12.0404ZM7.37585 10.3854C7.05163 10.2717 6.77899 10.1937 6.5549 10.1465C6.32644 10.0983 6.18617 10.0903 6.11576 10.0929C6.04667 10.0954 6.10234 10.1057 6.21098 10.0471C6.33999 9.97762 6.43589 9.86899 6.48379 9.77313L3.37422 8.22747C3.9271 7.12098 4.98316 6.73005 5.92243 6.69623C6.77056 6.66569 7.67306 6.90301 8.4817 7.18662L7.37585 10.3854Z" fill="#34322D"/>
<path d="M7.71484 12.0005C8.30168 11.4306 10.0058 10.9973 11.7866 11.7862C13.5675 12.575 13.872 15.2066 13.1205 16.0678C12.3691 16.929 10.7151 16.0678 10.7151 16.0678" stroke="#34322D" stroke-width="1.71429" stroke-linecap="round" stroke-linejoin="round"/>
<path d="M6.43042 5.14271C5.79445 4.42569 5.14491 4.07125 4.50195 3.75586" stroke="#34322D" stroke-width="1.71429" stroke-miterlimit="10" stroke-linecap="round"/>
<path d="M9.12714 3.97943C9.00084 3.21436 8.78655 2.57151 8.57227 1.71436" stroke="#34322D" stroke-width="1.71429" stroke-miterlimit="10" stroke-linecap="round"/>
<path d="M12 4.50022C12.1168 3.60331 12.4286 2.78593 12.8186 2.14307" stroke="#34322D" stroke-width="1.71429" stroke-miterlimit="10" stroke-linecap="round"/>
</g>
</g>
</svg>
