<svg width="21" height="21" viewBox="0 0 21 21" fill="none" xmlns="http://www.w3.org/2000/svg">
<path d="M2.21094 5.74739C2.21094 4.09926 3.54701 2.76318 5.19515 2.76318H14.7004C16.3486 2.76318 17.6846 4.09926 17.6846 5.74739V15.2527C17.6846 16.9008 16.3486 18.2369 14.7004 18.2369H5.19515C3.54701 18.2369 2.21094 16.9008 2.21094 15.2527V5.74739Z" fill="url(#paint0_linear_0_5009)"/>
<path d="M2.68555 5.74734C2.68555 4.36081 3.80954 3.23682 5.19607 3.23682H14.7013C16.0879 3.23682 17.2118 4.36081 17.2118 5.74734V15.2526C17.2118 16.6392 16.0879 17.7631 14.7013 17.7631H5.19607C3.80954 17.7631 2.68555 16.6392 2.68555 15.2526V5.74734Z" stroke="#B9B9B7" stroke-width="0.947369"/>
<path d="M5.80273 8.28955L7.73694 10.5001L5.80273 12.7106" stroke="#535350" stroke-width="1.33333" stroke-linecap="round" stroke-linejoin="round"/>
<path d="M9.5332 12.7104H13.2635" stroke="#535350" stroke-width="1.33333" stroke-linecap="round" stroke-linejoin="round"/>
<defs>
<linearGradient id="paint0_linear_0_5009" x1="9.94778" y1="2.76318" x2="9.94778" y2="18.2369" gradientUnits="userSpaceOnUse">
<stop stop-color="white"/>
<stop offset="1" stop-opacity="0.16"/>
</linearGradient>
</defs>
</svg>
