<svg width="21" height="21" viewBox="0 0 21 21" fill="none" xmlns="http://www.w3.org/2000/svg">
<path d="M18.2372 10.4999C18.2372 5.92177 14.5258 2.21045 9.94768 2.21045C5.36953 2.21045 1.6582 5.92177 1.6582 10.4999C1.6582 15.0781 5.36953 18.7894 9.94768 18.7894C14.5258 18.7894 18.2372 15.0781 18.2372 10.4999Z" fill="url(#paint0_linear_0_6682)"/>
<path d="M9.94669 2.68408H9.94665C5.63011 2.68408 2.13086 6.18333 2.13086 10.4999V10.4999C2.13086 14.8165 5.63011 18.3157 9.94665 18.3157H9.94669C14.2632 18.3157 17.7625 14.8165 17.7625 10.4999V10.4999C17.7625 6.18333 14.2632 2.68408 9.94669 2.68408Z" stroke="#B9B9B7" stroke-width="0.947369"/>
<path d="M8.3137 9.13259C8.35831 9.00836 8.45611 8.91056 8.58035 8.86595L12.3807 7.50105C12.7325 7.37469 13.0726 7.71486 12.9463 8.06664L11.5807 11.8665C11.5362 11.9906 11.4384 12.0884 11.3142 12.133L7.5144 13.4985C7.16261 13.6249 6.82245 13.2848 6.9488 12.933L8.3137 9.13259Z" stroke="#535350" stroke-width="1.33333" stroke-linecap="round" stroke-linejoin="round"/>
<defs>
<linearGradient id="paint0_linear_0_6682" x1="9.94768" y1="2.21045" x2="9.94768" y2="18.7894" gradientUnits="userSpaceOnUse">
<stop stop-color="white"/>
<stop offset="1" stop-opacity="0.16"/>
</linearGradient>
</defs>
</svg>
