<svg width="16" height="16" viewBox="0 0 16 16" fill="none" xmlns="http://www.w3.org/2000/svg">
<path d="M9.33398 1.33301V3.99967C9.33398 4.3533 9.47446 4.69244 9.72451 4.94248C9.97456 5.19253 10.3137 5.33301 10.6673 5.33301H13.334" stroke="#535350" stroke-width="1.33333" stroke-linecap="round" stroke-linejoin="round"/>
<path d="M2.84468 13.9997C2.96142 14.2019 3.12921 14.3699 3.33126 14.4869C3.53331 14.6039 3.76254 14.6658 3.99602 14.6663H11.9993C12.353 14.6663 12.6921 14.5259 12.9422 14.2758C13.1922 14.0258 13.3327 13.6866 13.3327 13.333V4.66634L9.99935 1.33301H3.99935C3.64573 1.33301 3.30659 1.47348 3.05654 1.72353C2.80649 1.97358 2.66602 2.31272 2.66602 2.66634V4.66634" stroke="#535350" stroke-width="1.33333" stroke-linecap="round" stroke-linejoin="round"/>
<path d="M6 12L5 11" stroke="#535350" stroke-width="1.33333" stroke-linecap="round" stroke-linejoin="round"/>
<path d="M3.33398 11.333C4.43855 11.333 5.33398 10.4376 5.33398 9.33301C5.33398 8.22844 4.43855 7.33301 3.33398 7.33301C2.22941 7.33301 1.33398 8.22844 1.33398 9.33301C1.33398 10.4376 2.22941 11.333 3.33398 11.333Z" stroke="#535350" stroke-width="1.33333" stroke-linecap="round" stroke-linejoin="round"/>
</svg>
