<svg width="28" height="28" viewBox="0 0 28 28" fill="none" xmlns="http://www.w3.org/2000/svg">
<mask id="mask0_0_6709" style="mask-type:luminance" maskUnits="userSpaceOnUse" x="0" y="0" width="28" height="28">
<path d="M28 28L0 28L-2.44784e-06 0L28 -2.44784e-06L28 28Z" fill="white"/>
</mask>
<g mask="url(#mask0_0_6709)">
<mask id="mask1_0_6709" style="mask-type:luminance" maskUnits="userSpaceOnUse" x="0" y="0" width="28" height="28">
<path d="M28 28L0 28L-2.44784e-06 0L28 -2.44784e-06L28 28Z" fill="white"/>
</mask>
<g mask="url(#mask1_0_6709)">
<path d="M20.5714 26.3484C22.5105 25.118 23.8513 18.5197 23.5563 16.5549C23.5563 16.5549 23.2491 15.5 22.499 15.5C21.7491 15.5 21.437 16.2902 21.437 16.2902C21.437 16.2902 20.1567 21.0224 18.999 21.5561C17.8413 22.0897 16.7188 21.5561 16.7188 21.5561C17.5687 24.7797 18.6322 27.5786 20.5714 26.3484Z" fill="#34322D"/>
<path d="M17.3563 11.0085L15.3784 10.5818L15.3872 10.539L15.3978 10.4968L17.3563 11.0085ZM17.6735 9.74993L19.6574 10.1463L19.6465 10.2044L19.6321 10.2617L17.6735 9.74993ZM17.3331 8.88826L17.845 6.98054L18.0675 7.04217L18.2713 7.15123L17.3331 8.88826ZM15.8278 9.29159L14.2579 8.01704L14.3433 7.9147L14.442 7.82482L15.8278 9.29159ZM14.5002 11.2499L16.3139 12.1519L16.1406 12.4984L15.8457 12.7524L14.5002 11.2499ZM13.7502 12.2499L15.72 11.8602L16.5793 15.7044L12.9329 14.0467L13.7502 12.2499ZM10.0002 17.2499L9.95269 15.2671C10.6246 15.2643 11.2602 15.5908 11.6479 16.1377C12.0356 16.6846 12.1244 17.3802 11.8847 17.9927L10.0002 17.2499ZM14.9657 21.1924L14.3538 23.0698L14.3192 23.0582L14.285 23.0456L14.9657 21.1924ZM18.4999 21.9998L18.8713 20.0585L18.9285 20.0701L18.9848 20.0849L18.4999 21.9998ZM21.2468 18.2669L22.0255 16.453L23.2789 16.9924L23.2637 18.3273L21.2468 18.2669ZM15.3978 10.4968L15.715 9.23816L19.6321 10.2617L19.3148 11.5203L15.3978 10.4968ZM17.6735 9.74993C15.6897 9.3535 15.6896 9.35423 15.6895 9.35496C15.6894 9.3552 15.6892 9.35592 15.6891 9.3564C15.689 9.35737 15.6888 9.35831 15.6887 9.35927C15.6883 9.36116 15.688 9.36304 15.6876 9.36488C15.6869 9.36859 15.6863 9.37221 15.6857 9.37573C15.6845 9.38279 15.6833 9.38953 15.6822 9.39597C15.6803 9.40883 15.6785 9.42069 15.677 9.43173C15.6742 9.45341 15.6722 9.47372 15.6709 9.49359C15.6689 9.52737 15.6674 9.58615 15.6796 9.66615C15.6996 9.79814 15.8215 10.3183 16.3948 10.6253L18.2713 7.15123C19.301 7.70255 19.5933 8.6536 19.6694 9.15532C19.7096 9.42018 19.7076 9.64855 19.6981 9.80572C19.6931 9.88728 19.6857 9.95772 19.6783 10.0141C19.6746 10.0425 19.6707 10.0679 19.6672 10.0899C19.6655 10.1009 19.6637 10.1111 19.6621 10.1206C19.6613 10.1253 19.6605 10.1298 19.6596 10.1341C19.6593 10.1362 19.6589 10.1383 19.6585 10.1404C19.6584 10.1414 19.6581 10.1424 19.658 10.1434C19.6579 10.1439 19.6578 10.1446 19.6577 10.1449C19.6575 10.1456 19.6574 10.1463 17.6735 9.74993ZM17.3331 8.88826C16.8211 10.796 16.8221 10.7962 16.823 10.7965C16.8232 10.7966 16.8242 10.7968 16.8248 10.797C16.826 10.7973 16.8272 10.7976 16.8284 10.798C16.8307 10.7986 16.833 10.7992 16.8354 10.7999C16.8399 10.8011 16.8445 10.8023 16.8488 10.8034C16.8574 10.8057 16.8656 10.8077 16.8732 10.8096C16.8885 10.8133 16.902 10.8164 16.9138 10.8188C16.9372 10.8237 16.9552 10.8266 16.9691 10.8284C16.9945 10.8317 17.0148 10.8324 17.035 10.8309C17.0877 10.8268 17.1654 10.8023 17.2137 10.7584L14.442 7.82482C15.181 7.15207 16.0114 6.92589 16.644 6.87738C16.9541 6.85361 17.2212 6.87135 17.421 6.89729C17.522 6.91039 17.609 6.92601 17.6797 6.94079C17.715 6.9482 17.7468 6.95546 17.7743 6.96219C17.7881 6.96556 17.8009 6.9688 17.8127 6.97187C17.8185 6.97341 17.8242 6.9749 17.8296 6.97635C17.8323 6.97707 17.8349 6.97779 17.8374 6.97849C17.8387 6.97884 17.84 6.97919 17.8413 6.97952C17.8419 6.9797 17.8428 6.97996 17.8431 6.98004C17.8441 6.98029 17.845 6.98054 17.3331 8.88826ZM17.3978 10.5661C16.9428 11.1117 16.4821 11.8155 16.3139 12.1519L12.6865 10.3478C13.0183 9.68421 13.6613 8.73234 14.2579 8.01704L17.3978 10.5661ZM15.8457 12.7524C15.6486 12.922 15.5567 13.0207 15.5329 13.0506C15.5202 13.0666 15.5772 13.0009 15.6371 12.8641C15.6889 12.7458 15.8337 12.369 15.72 11.8602L11.7804 12.6394C11.6409 12.0149 11.8098 11.5041 11.9265 11.2375C12.0512 10.9526 12.214 10.7247 12.3385 10.5683C12.5892 10.2538 12.8981 9.96823 13.1547 9.74738L15.8457 12.7524ZM10.9793 16.0918C10.9424 15.934 10.8522 15.7521 10.7011 15.5938C10.5613 15.4473 10.4179 15.3708 10.3275 15.3333C10.2398 15.2969 10.1705 15.2836 10.1282 15.2774C10.104 15.2739 10.0788 15.2713 10.0517 15.2697C10.0379 15.2689 10.023 15.2682 10.0067 15.2677C9.99855 15.2675 9.99 15.2674 9.98103 15.2672C9.97654 15.2672 9.97193 15.2671 9.96721 15.2671C9.96486 15.2671 9.96247 15.2671 9.96004 15.2671C9.95883 15.2671 9.95761 15.2671 9.95639 15.2671C9.95577 15.2671 9.95485 15.2671 9.95454 15.2671C9.95361 15.2671 9.95269 15.2671 10.0002 17.2499C10.0478 19.2326 10.0469 19.2326 10.0459 19.2326C10.0456 19.2326 10.0447 19.2326 10.044 19.2326C10.0427 19.2326 10.0414 19.2326 10.0401 19.2326C10.0375 19.2326 10.0348 19.2326 10.0321 19.2326C10.0266 19.2325 10.0208 19.2325 10.0148 19.2325C10.0027 19.2323 9.98961 19.232 9.97549 19.2317C9.94726 19.231 9.91475 19.2296 9.87843 19.2274C9.8063 19.2229 9.71647 19.2149 9.61348 19.1998C9.41379 19.1708 9.13089 19.1113 8.8186 18.9816C8.14661 18.7024 7.32011 18.0711 7.04835 16.9085L10.9793 16.0918ZM10.0002 17.2499C11.8847 17.9927 11.8846 17.993 11.8847 17.9927C11.8849 17.9926 11.8852 17.9915 11.8853 17.9913C11.8854 17.9908 11.8857 17.9904 11.8858 17.9899C11.8861 17.9891 11.8865 17.9881 11.8868 17.9873C11.8874 17.9858 11.888 17.9843 11.8885 17.983C11.8895 17.9803 11.8902 17.9783 11.8908 17.9769C11.8919 17.974 11.8921 17.9734 11.8915 17.9751C11.8903 17.9782 11.8863 17.9898 11.8802 18.0086C11.8678 18.0467 11.8486 18.1104 11.8292 18.1915C11.7876 18.3659 11.7604 18.5578 11.7661 18.7216L7.73406 18.7783C7.71256 18.1507 7.81054 17.5925 7.90074 17.2148C7.94733 17.0197 7.99571 16.8568 8.03448 16.7374C8.05397 16.6774 8.07133 16.6273 8.08524 16.5887C8.09219 16.5694 8.09832 16.5528 8.10345 16.5391C8.10602 16.5324 8.10833 16.5262 8.11038 16.5208C8.11141 16.5183 8.11238 16.5157 8.11326 16.5134C8.11371 16.5123 8.11414 16.5111 8.11455 16.5101C8.11476 16.5096 8.11496 16.509 8.11515 16.5086C8.11511 16.5088 8.11526 16.5083 8.11515 16.5086C8.11529 16.5082 8.11574 16.5071 10.0002 17.2499ZM16.9616 17.8826C16.6657 17.3193 16.638 16.7679 16.632 16.4941C16.6288 16.34 16.6331 16.19 16.6363 16.0822C16.64 15.9604 16.643 15.876 16.6435 15.7875C16.6451 15.4733 16.6087 15.3757 16.55 15.2843L19.9505 13.2155C20.6158 14.2525 20.6811 15.2476 20.6777 15.8853C20.6769 16.0347 20.6717 16.1796 20.6688 16.2764C20.6654 16.3872 20.6646 16.4456 20.6654 16.4875C20.668 16.6059 20.6863 16.3983 20.5386 16.1172L16.9616 17.8826ZM16.55 15.2843C16.3482 14.9697 16.3017 14.9214 16.0686 14.5679C15.896 14.306 15.6833 13.9619 15.5184 13.5422C15.1533 12.6131 15.1558 11.6701 15.3784 10.5818L19.3343 11.4353C19.2653 11.7723 19.2563 11.962 19.2598 12.0602C19.2627 12.14 19.2734 12.164 19.278 12.1759C19.2906 12.2079 19.3229 12.2771 19.4414 12.4566C19.5024 12.5491 19.5664 12.642 19.6575 12.7754C19.7435 12.9012 19.844 13.0495 19.9505 13.2155L16.55 15.2843ZM15.5775 19.3151C15.7946 19.3872 16.5474 19.5636 17.3922 19.747C17.7831 19.8319 18.1535 19.9099 18.4267 19.9668C18.5631 19.9952 18.6749 20.0183 18.7522 20.0341C18.7909 20.0421 18.821 20.0482 18.8412 20.0523C18.8514 20.0544 18.8591 20.0559 18.8641 20.057C18.8667 20.0576 18.8685 20.0579 18.8697 20.0582C18.8703 20.0583 18.8711 20.0585 18.8713 20.0585C18.8712 20.0585 18.8714 20.0585 18.8713 20.0585C18.8713 20.0585 18.8713 20.0585 18.4999 21.9998C18.1285 23.9413 18.1284 23.9413 18.1284 23.9412C18.1283 23.9412 18.1286 23.9413 18.1284 23.9412C18.1279 23.9412 18.1266 23.9409 18.1259 23.9407C18.1244 23.9405 18.1222 23.94 18.1193 23.9394C18.1136 23.9383 18.1052 23.9365 18.0943 23.9343C18.0727 23.9299 18.0411 23.9234 18.0008 23.9152C17.9203 23.8986 17.8048 23.8748 17.6642 23.8455C17.3835 23.7871 17.0007 23.7066 16.5949 23.6184C15.8465 23.4558 14.8322 23.2286 14.3538 23.0698L15.5775 19.3151ZM20.5386 16.1172C20.4522 15.9527 20.356 15.8479 20.3015 15.7955C20.273 15.768 20.25 15.7492 20.2359 15.7385C20.2217 15.7275 20.2135 15.7222 20.2131 15.7219C20.2125 15.7217 20.2174 15.7247 20.2287 15.731C20.2398 15.7372 20.2556 15.7453 20.2765 15.7555C20.3189 15.7761 20.3741 15.8003 20.4435 15.8278C20.5861 15.8842 20.7476 15.9383 20.9312 15.9968C21.0024 16.0194 21.1294 16.0593 21.2049 16.0834C21.2917 16.1112 21.4024 16.1475 21.5095 16.1874L20.1436 19.8919C20.0876 19.871 20.0029 19.8457 19.7558 19.7671C19.552 19.7022 19.2795 19.6132 18.9995 19.5024C18.7274 19.3947 18.3835 19.2416 18.0528 19.0292C17.7464 18.8326 17.2714 18.4721 16.9616 17.8826L20.5386 16.1172ZM21.5095 16.1874C21.5841 16.2152 21.6556 16.2428 21.7228 16.2707C21.7874 16.2974 21.8663 16.3318 21.9492 16.3737C22.0253 16.412 22.1576 16.4828 22.3026 16.5914C22.3801 16.6494 22.4703 16.7249 22.5627 16.8207C22.6586 16.9203 22.7435 17.0279 22.8168 17.1417C22.887 17.2509 22.9311 17.3426 22.947 17.3761C22.9506 17.3837 22.9535 17.3901 22.9537 17.3905C22.9548 17.3928 22.9526 17.3881 22.9502 17.3831C22.945 17.3721 22.9314 17.3436 22.9124 17.3075C22.8703 17.2275 22.8092 17.1249 22.7231 17.0144C22.6387 16.9062 22.5511 16.8167 22.4682 16.7437C22.3152 16.609 22.1792 16.5319 22.1259 16.5029C22.0935 16.4851 22.0681 16.4728 22.0532 16.4656C22.0378 16.4584 22.028 16.4541 22.0255 16.453L20.4679 20.0807C20.4033 20.0529 20.3161 20.0134 20.2219 19.962C20.1344 19.9143 19.9766 19.8221 19.8092 19.6749C19.7191 19.5956 19.626 19.5001 19.5375 19.3865C19.4472 19.2705 19.3829 19.1629 19.3381 19.0779C19.3178 19.0394 19.303 19.0084 19.2967 18.9949C19.2949 18.9914 19.2937 18.9884 19.2928 18.9867C19.2924 18.9858 19.292 18.9851 19.2918 18.9846C19.2914 18.9838 19.2937 18.9884 19.2967 18.9949C19.3102 19.0234 19.3516 19.11 19.4186 19.214C19.4885 19.3227 19.5692 19.4248 19.6595 19.5185C19.7462 19.6084 19.8292 19.6775 19.8972 19.7285C20.0234 19.8231 20.1284 19.8771 20.1629 19.8946C20.2046 19.9156 20.2279 19.9248 20.2178 19.9206C20.2103 19.9175 20.1878 19.9084 20.1436 19.8919L21.5095 16.1874ZM23.2637 18.3273C23.2548 19.1121 22.9391 19.9395 22.7151 20.4517C22.4683 21.0165 22.1421 21.6187 21.8418 22.019L18.5784 19.6259C18.6359 19.5493 18.8238 19.2383 19.0039 18.8269C19.0874 18.6356 19.152 18.4615 19.1931 18.3218C19.2402 18.1615 19.2305 18.1339 19.2297 18.2064L23.2637 18.3273ZM21.8418 22.019C21.4224 22.578 20.9471 23.1684 20.3753 23.5459C20.0383 23.7684 19.6313 23.9454 19.1511 24.0034C18.6875 24.0594 18.2915 23.9874 18.0149 23.9148L18.9848 20.0849C18.9703 20.081 18.8112 20.0398 18.5827 20.0674C18.3377 20.097 18.164 20.1864 18.0814 20.241C18.0212 20.2806 18.0361 20.2843 18.1404 20.17C18.2402 20.0608 18.3798 19.8907 18.5784 19.6259L21.8418 22.019ZM11.7661 18.7216C11.7509 18.282 11.4581 18.0893 11.5298 18.1395C11.6338 18.2121 11.8937 18.3392 12.3883 18.489C12.8609 18.632 13.3831 18.7495 13.9592 18.881C14.4716 18.9978 15.1246 19.1456 15.6462 19.3393L14.285 23.0456C14.0728 22.9668 13.7141 22.8785 13.1198 22.7429C12.5892 22.6219 11.9098 22.4708 11.2689 22.2767C10.6501 22.0893 9.88475 21.8106 9.23487 21.3564C8.55276 20.8797 7.77725 20.0393 7.73406 18.7783L11.7661 18.7216ZM7.56442 11.4015C7.642 11.2462 7.71117 10.9781 7.64433 10.6611C7.58355 10.3727 7.44432 10.2066 7.4023 10.1616C7.36223 10.1187 7.45956 10.2219 7.87025 10.397C8.22977 10.5502 8.65399 10.6866 9.07504 10.8103C9.30275 10.8772 9.45252 10.9185 9.6561 10.9776C9.80157 11.0197 10.0362 11.088 10.2315 11.1663L8.76867 14.8334C8.79985 14.846 8.77082 14.8335 8.58343 14.7791C8.45415 14.7417 8.20187 14.6705 7.98872 14.6078C7.52808 14.4725 6.91538 14.2816 6.32585 14.0303C5.7875 13.8009 5.02364 13.4222 4.45337 12.8111C4.14624 12.4819 3.82464 12.0101 3.69462 11.3933C3.55854 10.7479 3.67161 10.1285 3.93659 9.59822L7.56442 11.4015ZM10.2315 11.1663C10.6572 11.3372 11.1298 11.6123 11.507 12.0668C11.9067 12.5487 12.089 13.0999 12.1162 13.6231C12.1621 14.5062 11.755 15.258 11.5771 15.5818C11.4647 15.7862 11.3385 15.9937 11.249 16.1432C11.1484 16.3112 11.0803 16.4283 11.0296 16.5274C10.8694 16.8401 11.0936 16.5808 10.9793 16.0918L7.04835 16.9085C6.92141 16.3655 6.99162 15.8842 7.08067 15.5463C7.16997 15.2075 7.30562 14.9114 7.41898 14.6901C7.53422 14.465 7.66238 14.2494 7.76198 14.0831C7.8726 13.8983 7.95049 13.7701 8.01953 13.6445C8.08781 13.5203 8.11143 13.4621 8.11637 13.4482C8.12344 13.4281 8.07654 13.5442 8.08717 13.7488C8.09988 13.9935 8.19225 14.2863 8.4003 14.537C8.58571 14.7606 8.76482 14.8318 8.76867 14.8334L10.2315 11.1663ZM12.9329 14.0467C11.6485 13.4628 9.73709 12.5129 8.60515 12.1158L9.89531 8.3839C11.2598 8.86244 13.5583 9.99426 14.5676 10.4531L12.9329 14.0467ZM8.60515 12.1158C8.2269 11.9832 7.90882 11.8922 7.64738 11.8371C7.38084 11.7809 7.21719 11.7716 7.13505 11.7746C7.05444 11.7775 7.11939 11.7895 7.24614 11.7212C7.39665 11.6401 7.50853 11.5133 7.56442 11.4015L3.93659 9.59822C4.58161 8.30732 5.81368 7.85123 6.9095 7.81178C7.89898 7.77615 8.9519 8.05302 9.89531 8.3839L8.60515 12.1158Z" fill="#34322D"/>
<path d="M9 14.0004C9.68465 13.3355 11.6727 12.83 13.7503 13.7504C15.8281 14.6706 16.1833 17.7408 15.3066 18.7456C14.4299 19.7503 12.5003 18.7456 12.5003 18.7456" stroke="#34322D" stroke-width="2" stroke-linecap="round" stroke-linejoin="round"/>
<path d="M7.50183 5.99983C6.75987 5.1633 6.00207 4.74979 5.25195 4.38184" stroke="#34322D" stroke-width="2" stroke-miterlimit="10" stroke-linecap="round"/>
<path d="M10.6473 4.64258C10.5 3.75 10.25 3.00001 10 2" stroke="#34322D" stroke-width="2" stroke-miterlimit="10" stroke-linecap="round"/>
<path d="M14 5.25001C14.1363 4.20361 14.5 3.25 14.955 2.5" stroke="#34322D" stroke-width="2" stroke-miterlimit="10" stroke-linecap="round"/>
</g>
</g>
</svg>
