<svg width="20" height="20" viewBox="0 0 20 20" fill="none" xmlns="http://www.w3.org/2000/svg">
<path d="M11.666 1.6665V4.99984C11.666 5.44186 11.8416 5.86579 12.1542 6.17835C12.4667 6.49091 12.8907 6.6665 13.3327 6.6665H16.666" stroke="#535350" stroke-width="1.66667" stroke-linecap="round" stroke-linejoin="round"/>
<path d="M3.55732 17.4998C3.70324 17.7526 3.91297 17.9626 4.16554 18.1088C4.4181 18.2551 4.70464 18.3324 4.99648 18.3332H15.0007C15.4427 18.3332 15.8666 18.1576 16.1792 17.845C16.4917 17.5325 16.6673 17.1085 16.6673 16.6665V5.83317L12.5007 1.6665H5.00065C4.55862 1.6665 4.1347 1.8421 3.82214 2.15466C3.50958 2.46722 3.33398 2.89114 3.33398 3.33317V5.83317" stroke="#535350" stroke-width="1.66667" stroke-linecap="round" stroke-linejoin="round"/>
<path d="M7.5 15L6.25 13.75" stroke="#535350" stroke-width="1.66667" stroke-linecap="round" stroke-linejoin="round"/>
<path d="M4.16602 14.1665C5.54673 14.1665 6.66602 13.0472 6.66602 11.6665C6.66602 10.2858 5.54673 9.1665 4.16602 9.1665C2.7853 9.1665 1.66602 10.2858 1.66602 11.6665C1.66602 13.0472 2.7853 14.1665 4.16602 14.1665Z" stroke="#535350" stroke-width="1.66667" stroke-linecap="round" stroke-linejoin="round"/>
</svg>
