<svg width="21" height="21" viewBox="0 0 21 21" fill="none" xmlns="http://www.w3.org/2000/svg">
<path d="M2.21094 5.74739C2.21094 4.09926 3.54701 2.76318 5.19515 2.76318H14.7004C16.3486 2.76318 17.6846 4.09926 17.6846 5.74739V15.2527C17.6846 16.9008 16.3486 18.2369 14.7004 18.2369H5.19515C3.54701 18.2369 2.21094 16.9008 2.21094 15.2527V5.74739Z" fill="url(#paint0_linear_0_4572)"/>
<path d="M2.68359 5.74734C2.68359 4.36081 3.80759 3.23682 5.19412 3.23682H14.6994C16.0859 3.23682 17.2099 4.36081 17.2099 5.74734V15.2526C17.2099 16.6392 16.0859 17.7631 14.6994 17.7631H5.19412C3.80759 17.7631 2.68359 16.6392 2.68359 15.2526V5.74734Z" stroke="#B9B9B7" stroke-width="0.947369"/>
<path d="M9.53259 13.4011C11.3638 13.4011 12.8484 11.9166 12.8484 10.0853C12.8484 8.25406 11.3638 6.76953 9.53259 6.76953C7.70133 6.76953 6.2168 8.25406 6.2168 10.0853C6.2168 11.9166 7.70133 13.4011 9.53259 13.4011Z" stroke="#535350" stroke-width="1.33333" stroke-linecap="round" stroke-linejoin="round"/>
<path d="M12.0195 12.5723L13.6774 14.2302" stroke="#535350" stroke-width="1.33333" stroke-linecap="round" stroke-linejoin="round"/>
<defs>
<linearGradient id="paint0_linear_0_4572" x1="9.94778" y1="2.76318" x2="9.94778" y2="18.2369" gradientUnits="userSpaceOnUse">
<stop stop-color="white"/>
<stop offset="1" stop-opacity="0.16"/>
</linearGradient>
</defs>
</svg>
