<svg width="28" height="28" viewBox="0 0 28 28" fill="none" xmlns="http://www.w3.org/2000/svg">
<path d="M24.3162 13.9999C24.3162 7.8957 19.3678 2.94727 13.2636 2.94727C7.15937 2.94727 2.21094 7.8957 2.21094 13.9999C2.21094 20.1041 7.15937 25.0525 13.2636 25.0525C19.3678 25.0525 24.3162 20.1041 24.3162 13.9999Z" fill="url(#paint0_linear_0_6007)"/>
<path d="M13.2629 3.5791H13.2629C7.50746 3.5791 2.8418 8.24477 2.8418 14.0002V14.0002C2.8418 19.7556 7.50746 24.4213 13.2629 24.4213H13.2629C19.0183 24.4213 23.684 19.7556 23.684 14.0002V14.0002C23.684 8.24477 19.0183 3.5791 13.2629 3.5791Z" stroke="#B9B9B7" stroke-width="1.26316"/>
<path d="M11.0843 12.1771C11.1438 12.0115 11.2742 11.8811 11.4398 11.8216L16.507 10.0017C16.976 9.83325 17.4295 10.2868 17.2611 10.7558L15.4403 15.8223C15.3809 15.9878 15.2505 16.1182 15.085 16.1776L10.0185 17.9984C9.5495 18.1668 9.09594 17.7133 9.26442 17.2443L11.0843 12.1771Z" stroke="#535350" stroke-width="1.76842" stroke-linecap="round" stroke-linejoin="round"/>
<defs>
<linearGradient id="paint0_linear_0_6007" x1="13.2636" y1="2.94727" x2="13.2636" y2="25.0525" gradientUnits="userSpaceOnUse">
<stop stop-color="white"/>
<stop offset="1" stop-opacity="0.16"/>
</linearGradient>
</defs>
</svg>
