<svg width="117" height="38" viewBox="0 0 117 38" fill="none" xmlns="http://www.w3.org/2000/svg">
<path d="M26.6454 33.3646C28.9012 31.9335 30.4608 24.2579 30.1177 21.9723C30.1177 21.9723 29.7602 20.7452 28.8877 20.7451C28.0153 20.7451 27.6523 21.6643 27.6523 21.6643C27.6523 21.6643 27.4227 22.5129 27.0623 23.5814C26.5048 25.2342 26.2703 27.2736 24.8163 27.79C23.3623 28.3063 21.9082 27.8177 21.9082 27.8177C22.8969 31.5676 24.3896 34.7958 26.6454 33.3646Z" fill="#34322D"/>
<path fill-rule="evenodd" clip-rule="evenodd" d="M15.4676 19.3188C14.6389 19.4117 14.2024 19.7249 14.0552 19.8722C13.4735 20.4538 13.1827 21.0355 13.1827 21.3263C13.1827 21.6171 12.4985 19.9648 12.3482 19.81C11.9006 19.3491 11.9115 18.6126 12.3724 18.1651C13.0194 17.5368 14.0775 17.1335 15.2084 17.0067C16.3814 16.8752 17.7723 17.0218 19.1798 17.6452C20.8224 18.3728 21.7022 19.907 22.0345 21.3091C22.2032 22.0208 22.2463 22.7521 22.1598 23.4187C22.0759 24.0657 21.855 24.7577 21.3955 25.2843C20.4384 26.3814 19.0266 26.2578 18.2629 26.0958C17.8325 26.0045 17.453 25.8704 17.186 25.7627C17.0506 25.7081 16.9394 25.6583 16.8595 25.621C16.8195 25.6022 16.7871 25.5865 16.7631 25.5746C16.7512 25.5686 16.7413 25.5637 16.7336 25.5598L16.7237 25.5547L16.72 25.5528L16.7178 25.5517C16.7178 25.5517 16.7172 25.5513 17.2544 24.5195L16.7178 25.5517C16.1479 25.255 15.9259 24.5522 16.2226 23.9823C16.5187 23.4136 17.219 23.1919 17.7882 23.486M17.7882 23.486L17.7966 23.4902C17.806 23.4949 17.8228 23.5031 17.8462 23.514C17.8931 23.536 17.9652 23.5684 18.0562 23.6051C18.242 23.68 18.4874 23.7651 18.7457 23.8199C19.3593 23.9501 19.5799 23.8265 19.6425 23.7548C19.6929 23.697 19.8027 23.5043 19.8526 23.1195C19.9 22.7543 19.8799 22.3066 19.7707 21.8456C19.5471 20.9021 19.0118 20.1153 18.2375 19.7724C17.2281 19.3253 16.2543 19.2306 15.4676 19.3188" fill="#34322D"/>
<path fill-rule="evenodd" clip-rule="evenodd" d="M7.77735 7.29918C7.49441 7.87597 7.73263 8.57292 8.30943 8.85586C9.1379 9.26225 9.85684 9.66297 10.5687 10.4656C10.995 10.9462 11.7302 10.9902 12.2109 10.5639C12.6915 10.1376 12.7355 9.40237 12.3092 8.92173C11.2949 7.7781 10.2508 7.21677 9.33404 6.7671C8.75724 6.48416 8.06029 6.72238 7.77735 7.29918Z" fill="#34322D"/>
<path fill-rule="evenodd" clip-rule="evenodd" d="M14.065 3.91196C13.4417 4.06778 13.0628 4.69935 13.2186 5.32263C13.3275 5.75807 13.429 6.1304 13.5219 6.47124C13.6998 7.12361 13.8463 7.66063 13.9525 8.30398C14.0571 8.93786 14.6558 9.36689 15.2897 9.26225C15.9235 9.1576 16.3526 8.55892 16.2479 7.92504C16.1224 7.16464 15.9269 6.44518 15.7307 5.72304C15.6439 5.40327 15.5568 5.08297 15.4757 4.75836C15.3199 4.13509 14.6883 3.75614 14.065 3.91196Z" fill="#34322D"/>
<path fill-rule="evenodd" clip-rule="evenodd" d="M20.7138 4.62791C20.1645 4.29464 19.4491 4.46973 19.1158 5.01898C18.5064 6.02342 18.0262 7.28624 17.8458 8.67119C17.7629 9.30827 18.2121 9.89197 18.8491 9.97493C19.4862 10.0579 20.0699 9.60868 20.1529 8.97161C20.2895 7.92211 20.6556 6.96632 21.1049 6.22586C21.4381 5.67661 21.263 4.96118 20.7138 4.62791Z" fill="#34322D"/>
<path fill-rule="evenodd" clip-rule="evenodd" d="M23.2739 14.0562C25.5816 14.5173 25.5819 14.5156 25.5819 14.5156L25.5823 14.5139L25.5829 14.5103L25.5843 14.503L25.5871 14.4873C25.589 14.4764 25.591 14.4645 25.593 14.4516C25.5972 14.426 25.6016 14.3965 25.6059 14.3635C25.6145 14.2979 25.6232 14.2159 25.629 14.1211C25.6401 13.9382 25.6424 13.6726 25.5956 13.3645C25.507 12.7808 25.1671 11.6745 23.9692 11.0332L23.7322 10.9063L23.4733 10.8346L22.8778 13.0538C23.4088 13.3381 23.2739 14.0562 23.2739 14.0562ZM22.9049 15.5203L23.2739 14.0562L25.5816 14.5173L25.5689 14.5849L25.1964 16.0629C25.1247 16.4262 25.1153 16.6339 25.1192 16.7436C25.1223 16.8329 25.134 16.8622 25.1397 16.8766L25.1403 16.8783C25.1549 16.9154 25.1926 16.9959 25.3303 17.2047C25.3865 17.2899 25.4448 17.3752 25.5192 17.4839C25.5388 17.5127 25.5596 17.5431 25.5818 17.5756C25.6817 17.722 25.7987 17.8945 25.9225 18.0876C26.6965 19.2938 26.7725 20.4515 26.7684 21.1934C26.7684 21.2042 26.7683 21.2151 26.7682 21.2259C26.8607 21.2576 26.959 21.2896 27.0634 21.3229C27.0978 21.3338 27.1435 21.3482 27.1914 21.3634C27.2588 21.3846 27.3305 21.4073 27.3818 21.4237C27.4827 21.4561 27.6115 21.4982 27.7361 21.5446C27.8228 21.5769 27.906 21.6092 27.9842 21.6416C28.0594 21.6727 28.1511 21.7126 28.2476 21.7613C28.3225 21.7991 28.4443 21.8639 28.5822 21.9595L29.7943 22.4811L29.7768 24.0339C29.7664 24.9468 29.3991 25.9093 29.1386 26.5052C28.8514 27.1621 28.4719 27.8627 28.1226 28.3284C27.6347 28.9787 27.0818 29.6654 26.4168 30.1046C26.0247 30.3634 25.5513 30.5692 24.9927 30.6367C24.495 30.6969 24.0643 30.6302 23.7479 30.5532L23.6546 30.5341C23.5609 30.5148 23.4265 30.4871 23.263 30.4531C22.9364 30.3851 22.4912 30.2914 22.0191 30.1888C21.1486 29.9998 19.9687 29.7354 19.4121 29.5507L19.3719 29.5373L19.3322 29.5226C19.0854 29.4309 18.668 29.3281 17.9767 29.1705C17.9349 29.1609 17.8923 29.1512 17.849 29.1414C17.2526 29.0057 16.5186 28.8386 15.8236 28.6281C15.1038 28.4101 14.2134 28.0859 13.4575 27.5576C12.664 27.0031 11.7619 26.0253 11.7116 24.5587C11.7041 24.3391 11.7091 24.1269 11.7227 23.9255C11.3654 23.5382 11.0655 23.0319 10.914 22.3836C10.7663 21.7519 10.848 21.1919 10.9516 20.7989C11.0554 20.4048 11.2132 20.0604 11.3451 19.8029C11.3896 19.716 11.4358 19.6303 11.4818 19.5475C11.0456 19.4098 10.553 19.2398 10.0735 19.0354C9.44724 18.7684 8.55867 18.328 7.8953 17.6171C7.53802 17.2342 7.16392 16.6854 7.01266 15.9679C6.85437 15.217 6.9859 14.4966 7.29413 13.8797C8.04447 12.378 9.47769 11.8475 10.7524 11.8016C11.9035 11.7601 13.1283 12.0822 14.2257 12.4671C15.2256 12.8178 16.6568 13.4701 17.8725 14.0382C18.273 13.3816 18.8008 12.6396 19.3005 12.0404L19.3998 11.9213L19.5147 11.8168C20.3745 11.0342 21.3403 10.7711 22.0763 10.7146C22.4371 10.687 22.7477 10.7076 22.9801 10.7378C23.0975 10.753 23.1988 10.7712 23.281 10.7884C23.3222 10.797 23.359 10.8055 23.3911 10.8133C23.4071 10.8172 23.422 10.821 23.4357 10.8246L23.4554 10.8298L23.4646 10.8322L23.469 10.8335L23.4711 10.8341C23.4711 10.8341 23.4733 10.8346 22.8778 13.0538C22.8778 13.0538 21.9492 12.7967 21.1509 13.5014C21.1429 13.5085 21.1348 13.5157 21.1268 13.523C21.1021 13.5527 21.0772 13.5828 21.0524 13.6132C21.0167 13.6569 20.9809 13.7013 20.9451 13.7464C20.9346 13.7596 20.9241 13.7728 20.9137 13.7861C20.117 14.7969 20.1642 15.2192 18.71 16.9643C18.71 16.9643 17.9525 16.6135 17.4994 16.4005C17.1885 16.2543 16.8599 16.0999 16.525 15.9442C15.4447 15.4419 14.2995 14.9268 13.4753 14.6377C11.4462 13.9261 9.95024 13.8357 9.4042 14.9285C8.6839 16.3701 11.6089 17.2053 13.0786 17.6251C13.3881 17.7135 13.6331 17.7834 13.766 17.8367C14.5198 18.1393 14.5724 18.7464 14.3479 19.2906C14.2169 19.6081 14.1422 19.7871 13.7663 20.163C13.1846 20.7447 13.0892 21.4334 13.2003 21.9085C13.2559 22.1464 13.3659 22.3194 13.4967 22.4452C13.8475 22.7827 14.3478 22.7806 14.3478 22.7806C14.3478 22.7806 14.0252 23.6049 14.0568 24.5256C14.0637 24.7283 14.1182 24.9127 14.2121 25.0814C14.7698 26.0825 16.717 26.5261 18.3531 26.8987C19.0402 27.0553 19.6725 27.1993 20.1239 27.3668C20.9329 27.6353 24.2351 28.3061 24.2351 28.3061C24.8445 28.466 25.2223 28.2725 26.2245 26.9365C26.6408 26.3816 27.4209 24.812 27.4304 23.9636C27.3038 23.9092 27.295 23.8902 27.2861 23.8711C27.2739 23.8449 27.2616 23.8185 26.9416 23.6993C26.8346 23.6594 26.6913 23.6142 26.5274 23.5625C25.8451 23.3473 24.8044 23.0191 24.5263 22.4898C24.3912 22.2328 24.4019 21.888 24.4143 21.4848C24.4336 20.8578 24.4573 20.0897 23.9447 19.2908C23.8189 19.0947 23.6982 18.9182 23.5853 18.7531C22.9425 17.8134 22.5525 17.2432 22.9049 15.5203ZM12.1563 18.3582C12.1578 18.3539 12.1573 18.3549 12.1554 18.3607L12.1563 18.3582ZM26.7565 21.9332C26.7565 21.9332 26.7565 21.9241 26.7547 21.9084C26.7553 21.9257 26.7565 21.9332 26.7565 21.9332Z" fill="#34322D"/>
<path d="M107.045 24.9997H106.363V20.9957H107.287C107.537 22.0517 107.896 22.8217 108.365 23.3057C108.835 23.7897 109.443 24.0317 110.191 24.0317C110.734 24.0317 111.152 23.9217 111.445 23.7017C111.753 23.467 111.907 23.1517 111.907 22.7557C111.907 22.345 111.724 21.949 111.357 21.5677C110.991 21.1717 110.397 20.7537 109.575 20.3137C108.461 19.7124 107.661 19.1184 107.177 18.5317C106.693 17.9304 106.451 17.2557 106.451 16.5077C106.451 16.0237 106.539 15.5764 106.715 15.1657C106.906 14.7404 107.155 14.3737 107.463 14.0657C107.786 13.7577 108.167 13.523 108.607 13.3617C109.047 13.1857 109.524 13.0977 110.037 13.0977C110.492 13.0977 110.939 13.1637 111.379 13.2957C111.834 13.4277 112.23 13.611 112.567 13.8457L112.963 13.3177H113.535V16.6397H112.677C112.34 15.8037 111.988 15.2024 111.621 14.8357C111.269 14.469 110.837 14.2857 110.323 14.2857C109.913 14.2857 109.583 14.3957 109.333 14.6157C109.099 14.8357 108.981 15.129 108.981 15.4957C108.981 15.9064 109.157 16.295 109.509 16.6617C109.876 17.0284 110.477 17.4317 111.313 17.8717C111.9 18.1944 112.406 18.5097 112.831 18.8177C113.257 19.1257 113.601 19.441 113.865 19.7637C114.129 20.0717 114.32 20.4017 114.437 20.7537C114.569 21.091 114.635 21.4577 114.635 21.8537C114.635 22.367 114.54 22.829 114.349 23.2397C114.159 23.6504 113.887 24.0024 113.535 24.2957C113.183 24.589 112.758 24.8164 112.259 24.9777C111.775 25.139 111.233 25.2197 110.631 25.2197C110.001 25.2197 109.414 25.139 108.871 24.9777C108.329 24.8017 107.881 24.5524 107.529 24.2297L107.045 24.9997Z" fill="#34322D"/>
<path d="M100.03 16.9478C100.03 16.3612 100.015 15.8992 99.9859 15.5618C99.9565 15.2098 99.8759 14.9458 99.7439 14.7698C99.6119 14.5792 99.4139 14.4545 99.1499 14.3958C98.9005 14.3225 98.5559 14.2638 98.1159 14.2198V13.3398H103.088V20.0058C103.088 20.9005 103.095 21.6045 103.11 22.1178C103.139 22.6165 103.183 22.9905 103.242 23.2398C103.286 23.4305 103.337 23.5845 103.396 23.7018C103.455 23.8045 103.55 23.8925 103.682 23.9658C103.814 24.0245 103.99 24.0685 104.21 24.0978C104.445 24.1125 104.745 24.1198 105.112 24.1198V24.9778L100.734 25.2418L100.492 23.2838H100.404C100.023 23.8998 99.4872 24.3765 98.7979 24.7138C98.1085 25.0512 97.3385 25.2198 96.4879 25.2198C94.9185 25.2198 93.7232 24.6625 92.9019 23.5478C92.2712 22.6972 91.9559 21.4872 91.9559 19.9178V16.9478C91.9559 16.3465 91.9412 15.8772 91.9119 15.5398C91.8825 15.1878 91.8019 14.9238 91.6699 14.7478C91.5525 14.5718 91.3692 14.4545 91.1199 14.3958C90.8705 14.3225 90.5259 14.2638 90.0859 14.2198V13.3398H95.0139V19.5658C95.0139 21.0472 95.1972 22.1252 95.5639 22.7998C95.9305 23.4598 96.5172 23.7898 97.3239 23.7898C98.1892 23.7898 98.8565 23.3938 99.3259 22.6018C99.7952 21.8392 100.03 20.7172 100.03 19.2358V16.9478Z" fill="#34322D"/>
<path d="M79.688 21.4141C79.688 22.0154 79.7026 22.4921 79.732 22.8441C79.776 23.1814 79.8566 23.4454 79.974 23.6361C80.106 23.8121 80.2966 23.9294 80.546 23.9881C80.81 24.0467 81.162 24.0907 81.602 24.1201V25.0001H74.672V24.1201C75.0973 24.0907 75.4346 24.0467 75.684 23.9881C75.948 23.9294 76.146 23.8121 76.278 23.6361C76.4246 23.4601 76.52 23.2107 76.564 22.8881C76.608 22.5654 76.63 22.1254 76.63 21.5681V18.8181C76.63 17.9527 76.6153 17.2561 76.586 16.7281C76.5566 16.1854 76.52 15.8187 76.476 15.6281C76.432 15.4374 76.3733 15.2834 76.3 15.1661C76.2266 15.0341 76.1166 14.9387 75.97 14.8801C75.8233 14.8067 75.64 14.7627 75.42 14.7481C75.2 14.7187 74.9213 14.7041 74.584 14.7041V13.9561L78.83 13.1201L79.116 15.0561H79.204C79.688 14.4401 80.26 13.9634 80.92 13.6261C81.58 13.2887 82.306 13.1201 83.098 13.1201C84.0366 13.1201 84.792 13.2521 85.364 13.5161C85.9506 13.7654 86.4713 14.1907 86.926 14.7921C87.1753 15.1294 87.3953 15.5694 87.586 16.1121C87.7766 16.6401 87.872 17.3734 87.872 18.3121V21.4141C87.872 22.0154 87.8866 22.4921 87.916 22.8441C87.96 23.1814 88.0406 23.4454 88.158 23.6361C88.29 23.8121 88.4806 23.9294 88.73 23.9881C88.9793 24.0467 89.3166 24.0907 89.742 24.1201V25.0001H82.856V24.1201C83.296 24.1054 83.6406 24.0687 83.89 24.0101C84.154 23.9367 84.352 23.8121 84.484 23.6361C84.616 23.4601 84.704 23.2107 84.748 22.8881C84.792 22.5507 84.814 22.1107 84.814 21.5681V18.5761C84.814 17.8281 84.77 17.1974 84.682 16.6841C84.594 16.1707 84.4473 15.7601 84.242 15.4521C84.0513 15.1294 83.7946 14.9021 83.472 14.7701C83.1493 14.6234 82.746 14.5501 82.262 14.5501C81.7926 14.5501 81.3893 14.6821 81.052 14.9461C80.7146 15.2101 80.4213 15.5767 80.172 16.0461C80.04 16.3101 79.9226 16.6547 79.82 17.0801C79.732 17.4907 79.688 17.9234 79.688 18.3781V21.4141Z" fill="#34322D"/>
<path d="M69.1891 18.7301C67.9571 19.2874 67.0258 19.8081 66.3951 20.2921C65.7791 20.7614 65.4711 21.2527 65.4711 21.7661C65.4711 22.1914 65.5885 22.5287 65.8231 22.7781C66.0578 23.0274 66.3511 23.1521 66.7031 23.1521C67.0551 23.1521 67.3851 23.0934 67.6931 22.9761C68.0011 22.8441 68.2651 22.6754 68.4851 22.4701C68.7051 22.2647 68.8738 22.0227 68.9911 21.7441C69.1231 21.4507 69.1891 21.1427 69.1891 20.8201V18.7301ZM69.1891 17.5641V16.6401C69.1891 15.7894 69.0351 15.1734 68.7271 14.7921C68.4338 14.3961 67.9718 14.1981 67.3411 14.1981C66.9158 14.1981 66.5931 14.3154 66.3731 14.5501C66.1531 14.7701 65.9478 15.1441 65.7571 15.6721C65.6251 16.0387 65.4345 16.3247 65.1851 16.5301C64.9505 16.7354 64.6205 16.8381 64.1951 16.8381C63.7845 16.8381 63.4691 16.7134 63.2491 16.4641C63.0291 16.2147 62.9191 15.8627 62.9191 15.4081C62.9191 14.7041 63.3005 14.1467 64.0631 13.7361C64.8405 13.3254 66.0065 13.1201 67.5611 13.1201C69.2038 13.1201 70.3771 13.4207 71.0811 14.0221C71.7851 14.6087 72.1371 15.5987 72.1371 16.9921V21.8101C72.1371 23.0567 72.3865 23.6801 72.8851 23.6801C73.1638 23.6801 73.4205 23.5847 73.6551 23.3941L73.9851 24.0321C73.7798 24.3987 73.4571 24.6921 73.0171 24.9121C72.5918 25.1174 72.1078 25.2201 71.5651 25.2201C70.8905 25.2201 70.3771 25.0147 70.0251 24.6041C69.6731 24.1934 69.4971 23.6141 69.4971 22.8661H69.3871C68.9618 23.6287 68.4118 24.2081 67.7371 24.6041C67.0625 25.0001 66.2925 25.1981 65.4271 25.1981C64.5031 25.1981 63.7625 24.9414 63.2051 24.4281C62.6478 23.9001 62.3691 23.2181 62.3691 22.3821C62.3691 21.7367 62.6551 21.1354 63.2271 20.5781C63.7991 20.0061 64.7525 19.4487 66.0871 18.9061L69.1891 17.5641Z" fill="#34322D"/>
<path d="M43.1763 21.3701C43.1763 21.9861 43.1909 22.4701 43.2203 22.8221C43.2496 23.1741 43.3303 23.4454 43.4623 23.6361C43.5943 23.8121 43.7849 23.9294 44.0343 23.9881C44.2836 24.0467 44.6283 24.0907 45.0683 24.1201V25.0001H38.1163V24.1201C38.5563 24.0907 38.9083 24.0467 39.1723 23.9881C39.4363 23.9294 39.6343 23.8121 39.7663 23.6361C39.8983 23.4601 39.9863 23.2107 40.0303 22.8881C40.0743 22.5507 40.0963 22.1034 40.0963 21.5461V18.8181C40.0963 17.9821 40.0816 17.2854 40.0523 16.7281C40.0376 16.1707 40.0009 15.7894 39.9423 15.5841C39.8983 15.3934 39.8396 15.2467 39.7663 15.1441C39.7076 15.0267 39.6049 14.9387 39.4583 14.8801C39.3263 14.8067 39.1503 14.7627 38.9303 14.7481C38.7103 14.7187 38.4243 14.7041 38.0723 14.7041V13.9561L42.3183 13.1201L42.5823 15.0341H42.7143C43.3303 14.3447 43.9463 13.8534 44.5623 13.5601C45.1929 13.2667 45.9189 13.1201 46.7403 13.1201C47.7083 13.1201 48.5076 13.2887 49.1383 13.6261C49.7689 13.9634 50.2456 14.4474 50.5683 15.0781H50.6563C51.1843 14.4621 51.8149 13.9854 52.5483 13.6481C53.2816 13.2961 54.0663 13.1201 54.9023 13.1201C55.7823 13.1201 56.5449 13.2301 57.1903 13.4501C57.8503 13.6701 58.3636 13.9854 58.7303 14.3961C59.0236 14.7334 59.2363 15.1734 59.3683 15.7161C59.5149 16.2587 59.5883 17.0141 59.5883 17.9821V21.3701C59.5883 21.9714 59.6029 22.4481 59.6323 22.8001C59.6763 23.1521 59.7643 23.4234 59.8963 23.6141C60.0283 23.8047 60.2189 23.9294 60.4683 23.9881C60.7176 24.0467 61.0623 24.0907 61.5023 24.1201V25.0001H54.5503V24.1201C54.9903 24.1054 55.3349 24.0687 55.5843 24.0101C55.8483 23.9367 56.0463 23.8121 56.1783 23.6361C56.3249 23.4454 56.4129 23.1887 56.4423 22.8661C56.4863 22.5434 56.5083 22.1034 56.5083 21.5461V18.6641C56.5083 17.9014 56.4643 17.2561 56.3763 16.7281C56.2883 16.2001 56.1489 15.7747 55.9583 15.4521C55.7676 15.1294 55.5109 14.9021 55.1883 14.7701C54.8803 14.6234 54.4989 14.5501 54.0443 14.5501C53.5309 14.5501 53.1056 14.6747 52.7683 14.9241C52.4456 15.1734 52.1743 15.4961 51.9543 15.8921C51.5729 16.5814 51.3823 17.4394 51.3823 18.4661V21.3701C51.3823 21.9714 51.3969 22.4481 51.4263 22.8001C51.4556 23.1521 51.5363 23.4234 51.6683 23.6141C51.8003 23.8047 51.9909 23.9294 52.2403 23.9881C52.5043 24.0467 52.8636 24.0907 53.3183 24.1201V25.0001H46.3443V24.1201C46.7843 24.0907 47.1289 24.0467 47.3783 23.9881C47.6423 23.9294 47.8403 23.8121 47.9723 23.6361C48.1189 23.4601 48.2069 23.2107 48.2363 22.8881C48.2803 22.5507 48.3023 22.1034 48.3023 21.5461V18.6641C48.3023 17.9014 48.2583 17.2561 48.1703 16.7281C48.0823 16.2001 47.9356 15.7747 47.7303 15.4521C47.5396 15.1294 47.2829 14.9021 46.9603 14.7701C46.6376 14.6234 46.2343 14.5501 45.7503 14.5501C45.2663 14.5501 44.8629 14.6674 44.5403 14.9021C44.2323 15.1367 43.9756 15.4521 43.7703 15.8481C43.5796 16.2001 43.4329 16.6034 43.3303 17.0581C43.2276 17.5127 43.1763 17.9821 43.1763 18.4661V21.3701Z" fill="#34322D"/>
</svg>
