<svg width="24" height="24" viewBox="0 0 24 24" fill="none" xmlns="http://www.w3.org/2000/svg">
<mask id="mask0_0_6475" style="mask-type:luminance" maskUnits="userSpaceOnUse" x="0" y="0" width="24" height="24">
<path d="M24 24L0 24L-2.09815e-06 0L24 -2.09815e-06L24 24Z" fill="white"/>
</mask>
<g mask="url(#mask0_0_6475)">
<mask id="mask1_0_6475" style="mask-type:luminance" maskUnits="userSpaceOnUse" x="0" y="0" width="24" height="24">
<path d="M24 24L0 24L-2.09815e-06 0L24 -2.09815e-06L24 24Z" fill="white"/>
</mask>
<g mask="url(#mask1_0_6475)">
<path d="M17.6343 22.5838C19.2964 21.5292 20.4456 15.8735 20.1928 14.1894C20.1928 14.1894 19.9294 13.2852 19.2865 13.2852C18.6437 13.2852 18.3762 13.9625 18.3762 13.9625C18.3762 13.9625 17.2788 18.0187 16.2865 18.4761C15.2942 18.9335 14.332 18.4761 14.332 18.4761C15.0605 21.2392 15.9721 23.6383 17.6343 22.5838Z" fill="#34322D"/>
<path d="M14.8768 9.43532L13.1815 9.06954L13.189 9.03291L13.1981 8.99667L14.8768 9.43532ZM15.1487 8.35652L16.8492 8.6963L16.8398 8.74608L16.8275 8.79517L15.1487 8.35652ZM14.8569 7.61795L15.2957 5.98276L15.4864 6.03559L15.6611 6.12907L14.8569 7.61795ZM13.5667 7.96366L12.221 6.87119L12.2942 6.78347L12.3788 6.70643L13.5667 7.96366ZM12.4287 9.64217L13.9833 10.4154L13.8348 10.7124L13.582 10.9301L12.4287 9.64217ZM11.7859 10.4994L13.4743 10.1654L14.2108 13.4604L11.0853 12.0395L11.7859 10.4994ZM8.57164 14.7851L8.53088 13.0856C9.10679 13.0832 9.65164 13.363 9.98395 13.8318C10.3162 14.3006 10.3923 14.8968 10.1869 15.4218L8.57164 14.7851ZM12.8277 18.1644L12.3032 19.7736L12.2736 19.7637L12.2443 19.7529L12.8277 18.1644ZM15.857 18.8565L16.1754 17.1925L16.2244 17.2024L16.2727 17.2151L15.857 18.8565ZM18.2115 15.6568L18.879 14.1021L19.9533 14.5644L19.9403 15.7086L18.2115 15.6568ZM13.1981 8.99667L13.47 7.91786L16.8275 8.79517L16.5555 9.87397L13.1981 8.99667ZM15.1487 8.35652C13.4483 8.01673 13.4482 8.01735 13.4481 8.01798C13.448 8.01818 13.4479 8.0188 13.4478 8.01921C13.4477 8.02004 13.4475 8.02085 13.4474 8.02167C13.4471 8.02329 13.4468 8.0249 13.4465 8.02648C13.4459 8.02966 13.4454 8.03276 13.4449 8.03578C13.4438 8.04183 13.4428 8.04761 13.4419 8.05313C13.4402 8.06415 13.4387 8.07432 13.4374 8.08378C13.435 8.10236 13.4333 8.11977 13.4322 8.1368C13.4305 8.16576 13.4292 8.21614 13.4396 8.28471C13.4568 8.39785 13.5613 8.84374 14.0527 9.10683L15.6611 6.12907C16.5437 6.60163 16.7942 7.41681 16.8595 7.84686C16.8939 8.07388 16.8922 8.26963 16.8841 8.40434C16.8798 8.47425 16.8734 8.53463 16.8671 8.58297C16.8639 8.6073 16.8606 8.62904 16.8576 8.64791C16.8561 8.65736 16.8546 8.66614 16.8532 8.6742C16.8525 8.67823 16.8518 8.68209 16.8511 8.68578C16.8508 8.68762 16.8505 8.68942 16.8501 8.69117C16.85 8.69205 16.8498 8.69291 16.8497 8.69377C16.8496 8.6942 16.8495 8.69483 16.8494 8.69504C16.8493 8.69567 16.8492 8.6963 15.1487 8.35652ZM14.8569 7.61795C14.4181 9.25314 14.4189 9.25335 14.4197 9.25357C14.4199 9.25364 14.4207 9.25385 14.4212 9.25399C14.4223 9.25428 14.4233 9.25456 14.4243 9.25483C14.4263 9.25539 14.4283 9.25593 14.4303 9.25646C14.4342 9.25752 14.4381 9.25853 14.4418 9.2595C14.4492 9.26143 14.4562 9.26319 14.4627 9.2648C14.4758 9.268 14.4874 9.2706 14.4975 9.27271C14.5176 9.27691 14.533 9.27941 14.5449 9.28095C14.5667 9.28379 14.5841 9.28436 14.6014 9.28304C14.6466 9.27957 14.7132 9.25855 14.7546 9.2209L12.3788 6.70643C13.0123 6.12979 13.724 5.93592 14.2663 5.89434C14.5321 5.87396 14.761 5.88917 14.9323 5.9114C15.0188 5.92263 15.0934 5.93602 15.154 5.94869C15.1843 5.95504 15.2115 5.96126 15.2351 5.96703C15.2469 5.96992 15.2579 5.9727 15.268 5.97533C15.273 5.97665 15.2779 5.97793 15.2825 5.97917C15.2848 5.97979 15.287 5.9804 15.2892 5.981C15.2903 5.9813 15.2914 5.9816 15.2925 5.98189C15.293 5.98204 15.2938 5.98226 15.2941 5.98233C15.2949 5.98255 15.2957 5.98276 14.8569 7.61795ZM14.9124 9.05614C14.5224 9.52378 14.1275 10.1271 13.9833 10.4154L10.8741 8.86895C11.1585 8.30019 11.7097 7.4843 12.221 6.87119L14.9124 9.05614ZM13.582 10.9301C13.4131 11.0755 13.3343 11.1601 13.3139 11.1857C13.303 11.1994 13.3519 11.1431 13.4032 11.0259C13.4476 10.9245 13.5717 10.6015 13.4743 10.1654L10.0975 10.8333C9.9779 10.298 10.1227 9.86011 10.2227 9.63162C10.3296 9.38742 10.4691 9.19201 10.5758 9.05802C10.7907 8.78838 11.0555 8.54364 11.2754 8.35434L13.582 10.9301ZM9.41083 13.7925C9.37921 13.6572 9.30189 13.5013 9.17234 13.3656C9.05254 13.24 8.92959 13.1745 8.85214 13.1423C8.77698 13.1111 8.71757 13.0997 8.68136 13.0944C8.66056 13.0914 8.63901 13.0892 8.61576 13.0878C8.60392 13.0871 8.59112 13.0865 8.57718 13.0861C8.57019 13.0859 8.56286 13.0858 8.55517 13.0857C8.55132 13.0857 8.54737 13.0856 8.54333 13.0856C8.54131 13.0856 8.53926 13.0856 8.53718 13.0856C8.53614 13.0856 8.5351 13.0856 8.53405 13.0856C8.53352 13.0856 8.53273 13.0856 8.53247 13.0856C8.53167 13.0856 8.53088 13.0856 8.57164 14.7851C8.6124 16.4846 8.61159 16.4846 8.61079 16.4846C8.61052 16.4846 8.60971 16.4846 8.60916 16.4846C8.60807 16.4846 8.60696 16.4846 8.60584 16.4846C8.60359 16.4846 8.60129 16.4846 8.59894 16.4846C8.59422 16.4845 8.58928 16.4845 8.58411 16.4845C8.57378 16.4843 8.56253 16.4841 8.55042 16.4838C8.52623 16.4832 8.49836 16.482 8.46723 16.4801C8.4054 16.4763 8.32841 16.4694 8.24013 16.4565C8.06897 16.4316 7.82648 16.3806 7.5588 16.2694C6.98281 16.0301 6.27438 15.489 6.04145 14.4925L9.41083 13.7925ZM8.57164 14.7851C10.1869 15.4218 10.1868 15.4221 10.1869 15.4218C10.187 15.4217 10.1873 15.4208 10.1874 15.4206C10.1875 15.4202 10.1877 15.4198 10.1878 15.4194C10.1881 15.4187 10.1884 15.4179 10.1887 15.4172C10.1892 15.4159 10.1897 15.4146 10.1901 15.4135C10.191 15.4112 10.1916 15.4095 10.1921 15.4083C10.193 15.4058 10.1932 15.4053 10.1927 15.4067C10.1917 15.4094 10.1882 15.4193 10.183 15.4354C10.1724 15.4681 10.1559 15.5227 10.1393 15.5922C10.1036 15.7417 10.0803 15.9062 10.0852 16.0466L6.6292 16.0952C6.61077 15.5572 6.69475 15.0788 6.77207 14.755C6.812 14.5878 6.85347 14.4482 6.8867 14.3458C6.90341 14.2944 6.91829 14.2515 6.93021 14.2184C6.93617 14.2018 6.94142 14.1876 6.94582 14.1759C6.94802 14.1701 6.95 14.1648 6.95176 14.1602C6.95264 14.158 6.95347 14.1558 6.95423 14.1538C6.95461 14.1529 6.95498 14.1519 6.95533 14.151C6.95551 14.1506 6.95568 14.1501 6.95585 14.1497C6.95581 14.1499 6.95594 14.1495 6.95585 14.1497C6.95597 14.1494 6.95635 14.1484 8.57164 14.7851ZM14.5385 15.3274C14.2849 14.8446 14.2611 14.372 14.256 14.1373C14.2532 14.0052 14.2569 13.8766 14.2597 13.7842C14.2628 13.6798 14.2654 13.6075 14.2658 13.5316C14.2672 13.2623 14.236 13.1787 14.1857 13.1003L17.1004 11.3271C17.6707 12.2159 17.7266 13.0689 17.7237 13.6155C17.723 13.7435 17.7186 13.8677 17.7161 13.9507C17.7132 14.0457 17.7125 14.0957 17.7132 14.1316C17.7154 14.2331 17.7311 14.0552 17.6045 13.8142L14.5385 15.3274ZM14.1857 13.1003C14.0127 12.8307 13.9729 12.7893 13.7731 12.4863C13.6251 12.2618 13.4428 11.9668 13.3015 11.6071C12.9885 10.8107 12.9907 10.0024 13.1815 9.06954L16.5722 9.80109C16.5131 10.09 16.5054 10.2526 16.5084 10.3368C16.5109 10.4052 16.52 10.4258 16.524 10.436C16.5348 10.4634 16.5625 10.5227 16.664 10.6766C16.7163 10.7559 16.7712 10.8355 16.8493 10.9498C16.923 11.0577 17.0091 11.1848 17.1004 11.3271L14.1857 13.1003ZM13.3521 16.5553C13.5382 16.6171 14.1835 16.7683 14.9076 16.9255C15.2426 16.9983 15.5601 17.0651 15.7943 17.1139C15.9112 17.1382 16.007 17.158 16.0733 17.1716C16.1065 17.1784 16.1323 17.1837 16.1496 17.1872C16.1583 17.189 16.1649 17.1903 16.1692 17.1912C16.1714 17.1917 16.173 17.192 16.174 17.1922C16.1745 17.1923 16.1752 17.1925 16.1754 17.1925C16.1753 17.1925 16.1755 17.1925 16.1754 17.1925C16.1754 17.1925 16.1754 17.1925 15.857 18.8565C15.5387 20.5206 15.5386 20.5206 15.5386 20.5205C15.5385 20.5205 15.5388 20.5206 15.5386 20.5205C15.5382 20.5205 15.5371 20.5203 15.5365 20.5201C15.5352 20.5199 15.5333 20.5195 15.5308 20.519C15.5259 20.518 15.5187 20.5165 15.5094 20.5146C15.4909 20.5108 15.4638 20.5053 15.4292 20.4982C15.3602 20.484 15.2612 20.4636 15.1407 20.4385C14.9001 20.3884 14.572 20.3194 14.2242 20.2438C13.5827 20.1045 12.7133 19.9097 12.3032 19.7736L13.3521 16.5553ZM17.6045 13.8142C17.5304 13.6732 17.448 13.5834 17.4013 13.5385C17.3768 13.5149 17.3571 13.4988 17.345 13.4896C17.3329 13.4802 17.3258 13.4757 17.3255 13.4754C17.325 13.4752 17.3292 13.4778 17.3389 13.4832C17.3484 13.4885 17.3619 13.4955 17.3798 13.5042C17.4162 13.5219 17.4635 13.5426 17.523 13.5662C17.6452 13.6145 17.7836 13.6609 17.941 13.711C18.002 13.7304 18.1109 13.7646 18.1756 13.7853C18.25 13.8091 18.3449 13.8402 18.4367 13.8744L17.2659 17.0497C17.2179 17.0318 17.1453 17.0101 16.9335 16.9427C16.7588 16.8871 16.5253 16.8108 16.2853 16.7158C16.052 16.6235 15.7573 16.4923 15.4738 16.3102C15.2112 16.1417 14.804 15.8327 14.5385 15.3274L17.6045 13.8142ZM18.4367 13.8744C18.5006 13.8982 18.5619 13.9219 18.6195 13.9458C18.6749 13.9687 18.7425 13.9982 18.8136 14.0341C18.8788 14.0669 18.9922 14.1276 19.1165 14.2207C19.1829 14.2704 19.2602 14.3351 19.3394 14.4172C19.4216 14.5026 19.4944 14.5948 19.5572 14.6924C19.6174 14.786 19.6552 14.8646 19.6688 14.8933C19.6719 14.8998 19.6744 14.9053 19.6746 14.9056C19.6755 14.9076 19.6736 14.9036 19.6716 14.8993C19.6671 14.8899 19.6555 14.8654 19.6392 14.8345C19.6031 14.7659 19.5507 14.678 19.4769 14.5833C19.4046 14.4905 19.3295 14.4138 19.2584 14.3512C19.1273 14.2358 19.0107 14.1697 18.965 14.1448C18.9373 14.1296 18.9155 14.119 18.9027 14.1129C18.8895 14.1067 18.8811 14.103 18.879 14.1021L17.5439 17.2115C17.4885 17.1877 17.4138 17.1538 17.333 17.1098C17.258 17.0689 17.1228 16.9899 16.9793 16.8637C16.9021 16.7957 16.8223 16.7139 16.7464 16.6165C16.669 16.5171 16.6139 16.4248 16.5755 16.352C16.5581 16.319 16.5454 16.2924 16.54 16.2808C16.5385 16.2778 16.5374 16.2753 16.5367 16.2738C16.5363 16.273 16.536 16.2724 16.5358 16.272C16.5355 16.2713 16.5374 16.2753 16.54 16.2808C16.5516 16.3053 16.5871 16.3795 16.6445 16.4686C16.7044 16.5618 16.7736 16.6493 16.851 16.7296C16.9253 16.8067 16.9964 16.8659 17.0547 16.9096C17.1629 16.9907 17.2529 17.037 17.2825 17.052C17.3182 17.07 17.3382 17.0779 17.3295 17.0743C17.3231 17.0716 17.3038 17.0638 17.2659 17.0497L18.4367 13.8744ZM19.9403 15.7086C19.9327 16.3813 19.6621 17.0905 19.4701 17.5295C19.2585 18.0136 18.9789 18.5298 18.7215 18.8729L15.9243 16.8217C15.9736 16.756 16.1347 16.4895 16.289 16.1368C16.3606 15.9729 16.416 15.8236 16.4512 15.7039C16.4916 15.5665 16.4833 15.5428 16.4826 15.605L19.9403 15.7086ZM18.7215 18.8729C18.362 19.3521 17.9546 19.8581 17.4645 20.1817C17.1757 20.3724 16.8268 20.5241 16.4152 20.5738C16.0178 20.6218 15.6784 20.5601 15.4413 20.4979L16.2727 17.2151C16.2602 17.2118 16.1239 17.1765 15.928 17.2001C15.718 17.2255 15.5691 17.3021 15.4983 17.3489C15.4467 17.3829 15.4595 17.386 15.5489 17.2881C15.6344 17.1945 15.7541 17.0487 15.9243 16.8217L18.7215 18.8729ZM10.0852 16.0466C10.0722 15.6698 9.82119 15.5046 9.88272 15.5476C9.97187 15.6099 10.1946 15.7188 10.6185 15.8472C11.0236 15.9698 11.4712 16.0705 11.965 16.1832C12.4042 16.2833 12.9639 16.41 13.411 16.576L12.2443 19.7529C12.0624 19.6853 11.7549 19.6096 11.2455 19.4934C10.7907 19.3897 10.2084 19.2602 9.65908 19.0938C9.12868 18.9332 8.47265 18.6943 7.91561 18.305C7.33094 17.8964 6.66622 17.176 6.6292 16.0952L10.0852 16.0466ZM6.48379 9.77215C6.55029 9.63907 6.60958 9.40923 6.55229 9.13749C6.50019 8.89032 6.38085 8.74799 6.34483 8.70938C6.31049 8.67259 6.39391 8.76109 6.74593 8.91115C7.05409 9.04251 7.41771 9.15935 7.77861 9.26539C7.97379 9.32273 8.10216 9.35815 8.27666 9.40877C8.40135 9.44494 8.60247 9.50341 8.76984 9.57059L7.51601 12.7138C7.54273 12.7246 7.51785 12.7139 7.35723 12.6673C7.24642 12.6352 7.03018 12.5742 6.84748 12.5205C6.45264 12.4045 5.92747 12.2409 5.42216 12.0255C4.96072 11.8288 4.30598 11.5042 3.81718 10.9804C3.55392 10.6983 3.27827 10.2939 3.16682 9.76515C3.05018 9.21189 3.1471 8.68104 3.37422 8.22649L6.48379 9.77215ZM8.76984 9.57059C9.13471 9.71705 9.53986 9.95285 9.86312 10.3425C10.2057 10.7555 10.362 11.228 10.3853 11.6764C10.4246 12.4334 10.0757 13.0778 9.92323 13.3553C9.82686 13.5305 9.71874 13.7084 9.642 13.8365C9.55581 13.9805 9.49742 14.0809 9.45393 14.1658C9.31667 14.4339 9.50879 14.2116 9.41083 13.7925L6.04145 14.4925C5.93264 14.0271 5.99282 13.6145 6.06915 13.3249C6.14569 13.0345 6.26196 12.7807 6.35913 12.591C6.45791 12.3981 6.56776 12.2133 6.65313 12.0707C6.74795 11.9123 6.81471 11.8024 6.87389 11.6948C6.93241 11.5883 6.95266 11.5384 6.95689 11.5265C6.96295 11.5093 6.92275 11.6088 6.93186 11.7842C6.94276 11.9939 7.02193 12.2449 7.20026 12.4598C7.35918 12.6514 7.51271 12.7125 7.51601 12.7138L8.76984 9.57059ZM11.0853 12.0395C9.9844 11.539 8.34608 10.7248 7.37585 10.3845L8.4817 7.18564C9.65122 7.59582 11.6214 8.56595 12.4865 8.95926L11.0853 12.0395ZM7.37585 10.3845C7.05163 10.2708 6.77899 10.1928 6.5549 10.1456C6.32644 10.0974 6.18617 10.0894 6.11576 10.092C6.04667 10.0945 6.10234 10.1048 6.21098 10.0462C6.33999 9.97664 6.43589 9.86801 6.48379 9.77215L3.37422 8.22649C3.9271 7.12 4.98316 6.72907 5.92243 6.69525C6.77056 6.66471 7.67306 6.90203 8.4817 7.18564L7.37585 10.3845Z" fill="#34322D"/>
<path d="M7.71484 11.9995C8.30168 11.4296 10.0058 10.9963 11.7866 11.7852C13.5675 12.574 13.872 15.2056 13.1205 16.0668C12.3691 16.928 10.7151 16.0668 10.7151 16.0668" stroke="#34322D" stroke-width="1.71429" stroke-linecap="round" stroke-linejoin="round"/>
<path d="M6.43042 5.14271C5.79445 4.42569 5.14491 4.07125 4.50195 3.75586" stroke="#34322D" stroke-width="1.71429" stroke-miterlimit="10" stroke-linecap="round"/>
<path d="M9.12714 3.97894C9.00084 3.21387 8.78655 2.57102 8.57227 1.71387" stroke="#34322D" stroke-width="1.71429" stroke-miterlimit="10" stroke-linecap="round"/>
<path d="M12 4.49973C12.1168 3.60282 12.4286 2.78544 12.8186 2.14258" stroke="#34322D" stroke-width="1.71429" stroke-miterlimit="10" stroke-linecap="round"/>
</g>
</g>
</svg>
